<mxfile host="app.diagrams.net" agent="Mozilla/5.0 (Windows NT 10.0; Win64; x64) AppleWebKit/537.36 (KHTML, like Gecko) Chrome/134.0.0.0 Safari/537.36" version="26.1.3">
  <diagram id="R2lEEEUBdFMjLlhIrx00" name="Page-1">
    <mxGraphModel dx="794" dy="1632" grid="1" gridSize="10" guides="1" tooltips="1" connect="1" arrows="0" fold="1" page="1" pageScale="1" pageWidth="850" pageHeight="1100" math="0" shadow="0" extFonts="Permanent Marker^https://fonts.googleapis.com/css?family=Permanent+Marker">
      <root>
        <mxCell id="0" />
        <mxCell id="1" parent="0" />
        <mxCell id="DGyCyMm6i7E1QIW6mR5m-5" value="EMPLOYEE" style="whiteSpace=wrap;html=1;align=center;" vertex="1" parent="1">
          <mxGeometry x="360" y="90" width="160" height="40" as="geometry" />
        </mxCell>
        <mxCell id="DGyCyMm6i7E1QIW6mR5m-7" value="Fname" style="ellipse;whiteSpace=wrap;html=1;align=center;" vertex="1" parent="1">
          <mxGeometry y="-80" width="100" height="40" as="geometry" />
        </mxCell>
        <mxCell id="DGyCyMm6i7E1QIW6mR5m-8" value="Lname" style="ellipse;whiteSpace=wrap;html=1;align=center;" vertex="1" parent="1">
          <mxGeometry x="220" y="-80" width="100" height="40" as="geometry" />
        </mxCell>
        <mxCell id="DGyCyMm6i7E1QIW6mR5m-9" value="" style="endArrow=none;html=1;rounded=0;" edge="1" parent="1" source="DGyCyMm6i7E1QIW6mR5m-7" target="DGyCyMm6i7E1QIW6mR5m-14">
          <mxGeometry relative="1" as="geometry">
            <mxPoint x="330" y="190" as="sourcePoint" />
            <mxPoint x="490" y="190" as="targetPoint" />
          </mxGeometry>
        </mxCell>
        <mxCell id="DGyCyMm6i7E1QIW6mR5m-10" value="" style="endArrow=none;html=1;rounded=0;entryX=0.5;entryY=1;entryDx=0;entryDy=0;" edge="1" parent="1" source="DGyCyMm6i7E1QIW6mR5m-14" target="DGyCyMm6i7E1QIW6mR5m-8">
          <mxGeometry relative="1" as="geometry">
            <mxPoint x="160" y="80" as="sourcePoint" />
            <mxPoint x="320" y="80" as="targetPoint" />
          </mxGeometry>
        </mxCell>
        <mxCell id="DGyCyMm6i7E1QIW6mR5m-11" value="ID" style="ellipse;whiteSpace=wrap;html=1;align=center;fontStyle=4;" vertex="1" parent="1">
          <mxGeometry width="100" height="40" as="geometry" />
        </mxCell>
        <mxCell id="DGyCyMm6i7E1QIW6mR5m-12" value="" style="endArrow=none;html=1;rounded=0;exitX=0.5;exitY=1;exitDx=0;exitDy=0;" edge="1" parent="1" source="DGyCyMm6i7E1QIW6mR5m-11" target="DGyCyMm6i7E1QIW6mR5m-5">
          <mxGeometry relative="1" as="geometry">
            <mxPoint x="330" y="190" as="sourcePoint" />
            <mxPoint x="150" y="190" as="targetPoint" />
          </mxGeometry>
        </mxCell>
        <mxCell id="DGyCyMm6i7E1QIW6mR5m-14" value="Name" style="ellipse;whiteSpace=wrap;html=1;align=center;" vertex="1" parent="1">
          <mxGeometry x="110" width="100" height="40" as="geometry" />
        </mxCell>
        <mxCell id="DGyCyMm6i7E1QIW6mR5m-15" value="" style="endArrow=none;html=1;rounded=0;entryX=0.5;entryY=1;entryDx=0;entryDy=0;" edge="1" parent="1" source="DGyCyMm6i7E1QIW6mR5m-5" target="DGyCyMm6i7E1QIW6mR5m-14">
          <mxGeometry relative="1" as="geometry">
            <mxPoint x="100" y="190" as="sourcePoint" />
            <mxPoint x="260" y="190" as="targetPoint" />
          </mxGeometry>
        </mxCell>
        <mxCell id="DGyCyMm6i7E1QIW6mR5m-16" value="Mname" style="ellipse;whiteSpace=wrap;html=1;align=center;" vertex="1" parent="1">
          <mxGeometry x="110" y="-80" width="100" height="40" as="geometry" />
        </mxCell>
        <mxCell id="DGyCyMm6i7E1QIW6mR5m-17" value="" style="endArrow=none;html=1;rounded=0;" edge="1" parent="1" source="DGyCyMm6i7E1QIW6mR5m-16" target="DGyCyMm6i7E1QIW6mR5m-14">
          <mxGeometry relative="1" as="geometry">
            <mxPoint x="330" y="20" as="sourcePoint" />
            <mxPoint x="490" y="20" as="targetPoint" />
          </mxGeometry>
        </mxCell>
        <mxCell id="DGyCyMm6i7E1QIW6mR5m-19" value="SSN" style="ellipse;whiteSpace=wrap;html=1;align=center;fontStyle=4;" vertex="1" parent="1">
          <mxGeometry x="220" width="100" height="40" as="geometry" />
        </mxCell>
        <mxCell id="DGyCyMm6i7E1QIW6mR5m-20" value="" style="endArrow=none;html=1;rounded=0;" edge="1" parent="1" source="DGyCyMm6i7E1QIW6mR5m-5" target="DGyCyMm6i7E1QIW6mR5m-19">
          <mxGeometry relative="1" as="geometry">
            <mxPoint x="290" y="20" as="sourcePoint" />
            <mxPoint x="450" y="20" as="targetPoint" />
          </mxGeometry>
        </mxCell>
        <mxCell id="DGyCyMm6i7E1QIW6mR5m-21" value="Sex" style="ellipse;whiteSpace=wrap;html=1;align=center;" vertex="1" parent="1">
          <mxGeometry x="330" width="100" height="40" as="geometry" />
        </mxCell>
        <mxCell id="DGyCyMm6i7E1QIW6mR5m-22" value="" style="endArrow=none;html=1;rounded=0;" edge="1" parent="1" source="DGyCyMm6i7E1QIW6mR5m-5" target="DGyCyMm6i7E1QIW6mR5m-21">
          <mxGeometry relative="1" as="geometry">
            <mxPoint x="320" y="20" as="sourcePoint" />
            <mxPoint x="480" y="20" as="targetPoint" />
          </mxGeometry>
        </mxCell>
        <mxCell id="DGyCyMm6i7E1QIW6mR5m-23" value="Address" style="ellipse;shape=doubleEllipse;margin=3;whiteSpace=wrap;html=1;align=center;" vertex="1" parent="1">
          <mxGeometry x="440" width="100" height="40" as="geometry" />
        </mxCell>
        <mxCell id="DGyCyMm6i7E1QIW6mR5m-24" value="" style="endArrow=none;html=1;rounded=0;" edge="1" parent="1" source="DGyCyMm6i7E1QIW6mR5m-5" target="DGyCyMm6i7E1QIW6mR5m-23">
          <mxGeometry relative="1" as="geometry">
            <mxPoint x="300" y="190" as="sourcePoint" />
            <mxPoint x="460" y="190" as="targetPoint" />
          </mxGeometry>
        </mxCell>
        <mxCell id="DGyCyMm6i7E1QIW6mR5m-25" value="Bdate" style="ellipse;whiteSpace=wrap;html=1;align=center;" vertex="1" parent="1">
          <mxGeometry x="550" width="100" height="40" as="geometry" />
        </mxCell>
        <mxCell id="DGyCyMm6i7E1QIW6mR5m-29" value="" style="endArrow=none;html=1;rounded=0;" edge="1" parent="1" source="DGyCyMm6i7E1QIW6mR5m-5" target="DGyCyMm6i7E1QIW6mR5m-25">
          <mxGeometry relative="1" as="geometry">
            <mxPoint x="370" y="110" as="sourcePoint" />
            <mxPoint x="530" y="110" as="targetPoint" />
          </mxGeometry>
        </mxCell>
        <mxCell id="DGyCyMm6i7E1QIW6mR5m-30" value="Relationship" style="shape=rhombus;perimeter=rhombusPerimeter;whiteSpace=wrap;html=1;align=center;" vertex="1" parent="1">
          <mxGeometry x="380" y="240" width="120" height="60" as="geometry" />
        </mxCell>
        <mxCell id="DGyCyMm6i7E1QIW6mR5m-31" value="Salary" style="ellipse;whiteSpace=wrap;html=1;align=center;" vertex="1" parent="1">
          <mxGeometry x="660" width="100" height="40" as="geometry" />
        </mxCell>
        <mxCell id="DGyCyMm6i7E1QIW6mR5m-32" value="" style="endArrow=none;html=1;rounded=0;" edge="1" parent="1" source="DGyCyMm6i7E1QIW6mR5m-5" target="DGyCyMm6i7E1QIW6mR5m-31">
          <mxGeometry relative="1" as="geometry">
            <mxPoint x="510" y="100" as="sourcePoint" />
            <mxPoint x="670" y="100" as="targetPoint" />
          </mxGeometry>
        </mxCell>
        <mxCell id="DGyCyMm6i7E1QIW6mR5m-33" value="Phone_num" style="ellipse;whiteSpace=wrap;html=1;align=center;" vertex="1" parent="1">
          <mxGeometry x="770" width="100" height="40" as="geometry" />
        </mxCell>
        <mxCell id="DGyCyMm6i7E1QIW6mR5m-34" value="" style="endArrow=none;html=1;rounded=0;" edge="1" parent="1" source="DGyCyMm6i7E1QIW6mR5m-5" target="DGyCyMm6i7E1QIW6mR5m-33">
          <mxGeometry relative="1" as="geometry">
            <mxPoint x="570" y="120" as="sourcePoint" />
            <mxPoint x="730" y="120" as="targetPoint" />
          </mxGeometry>
        </mxCell>
      </root>
    </mxGraphModel>
  </diagram>
</mxfile>
